<svg width="16" height="15" viewBox="0 0 16 15" fill="none" xmlns="http://www.w3.org/2000/svg">
<g clip-path="url(#clip0_60_79)">
<path d="M6.78559 1.16813C5.7766 1.16813 4.84194 1.42277 3.9816 1.93206C3.13129 2.42137 2.46038 3.09042 1.96887 3.93923C1.45736 4.79802 1.20041 5.7342 1.19802 6.74777C1.19563 7.76134 1.44817 8.69752 1.95564 9.55631C2.44318 10.3951 3.11093 11.0642 3.95891 11.5635C4.81685 12.0728 5.75281 12.3274 6.7668 12.3274C7.78078 12.3274 8.71795 12.0728 9.57829 11.5635C10.4186 11.0642 11.0895 10.3951 11.591 9.55631C12.1025 8.69752 12.3595 7.76134 12.3619 6.74777C12.3642 5.7342 12.1117 4.79802 11.6042 3.93923C11.1067 3.09042 10.439 2.42137 9.60098 1.93206C8.74303 1.42277 7.80457 1.16813 6.78559 1.16813ZM0.029209 6.74028C0.0320791 5.522 0.339444 4.38859 0.951305 3.34007C1.55311 2.32151 2.3642 1.51265 3.38459 0.913491C4.43498 0.304348 5.57206 -0.000222385 6.79584 -0.000222385C8.01961 -0.000222385 9.15526 0.304348 10.2028 0.913491C11.2203 1.51265 12.0226 2.32151 12.6096 3.34007C13.2266 4.38859 13.5336 5.52449 13.5307 6.74777C13.5278 7.97105 13.2154 9.10695 12.5936 10.1555C12.0018 11.174 11.1957 11.9779 10.1753 12.5671C9.12491 13.1862 7.98782 13.4958 6.76404 13.4958C5.54027 13.4958 4.40463 13.1862 3.35714 12.5671C2.33955 11.9779 1.53225 11.174 0.935249 10.1555C0.328329 9.10695 0.0263155 7.96855 0.029209 6.74028ZM10.6893 10.6648C10.7895 10.5549 10.917 10.5 11.0718 10.5C11.2266 10.5 11.3589 10.5549 11.4685 10.6648L14.8472 14.035C14.9568 14.1448 15.0115 14.2772 15.0111 14.4319C15.0107 14.5867 14.9555 14.719 14.8453 14.8289C14.7352 14.9387 14.6027 14.9937 14.4478 14.9937C14.293 14.9937 14.1607 14.9387 14.0511 14.8289L10.6875 11.4437C10.5778 11.3338 10.5232 11.2015 10.5236 11.0467C10.5239 10.8919 10.5792 10.7646 10.6893 10.6648Z" fill="black"/>
</g>
<defs>
<clipPath id="clip0_60_79">
<rect width="15.02" height="15" fill="white" transform="matrix(1 0 0.00235485 -0.999592 0 14.9937)"/>
</clipPath>
</defs>
</svg>
